PathFileType	4	(X/Y/Z)	C:\Users\°ÂÌØÂü\Desktop\20210112\bx_n_10_501-Unnamed.trc
DataRate	CameraRate	NumFrames	NumMarkers	Units	OrigDataRate	OrigDataStartFrame	OrigNumFrames
50.00	50.00	       4	0	mm	50.00	382	       436
Frame#	Time	
		

382	7.620	-720.66687	121.29913	1845.19922	-728.60840	287.65213	1527.54382	-567.61035	-2.37049	1056.51672	-593.91656	246.22319	1069.69348	-677.19806	145.06641	578.58795	-682.17786	269.46146	744.92786	-713.33923	251.10428	643.93317	-716.85828	248.04977	577.95117	-664.49097	206.43912	534.77563	-759.06372	257.18301	503.93906	-517.48584	-72.90376	143.12238	-549.15186	-31.01059	163.92677	-790.58167	38.23863	174.01254	-568.94025	216.84265	816.17004	-596.69592	25.05018	167.71188	-672.05176	52.45108	159.39291	-711.13544	153.83278	216.43124	-795.01508	178.11356	184.08211	-767.12360	227.21967	205.73250	-591.25641	219.88963	173.63261	-882.55273	296.27115	144.72351	-556.00958	257.14984	164.24242	-660.31793	297.76093	157.99667	-624.06671	306.78439	158.46516	-528.12280	304.28763	146.42749	-699.92224	-70.39291	1537.56055	-714.67645	69.58504	215.87520	-738.53571	-45.33509	490.40060	-756.44000	-20.24452	208.10156	-875.85522	-78.73365	141.22168	-625.76880	-72.12154	871.80121	-776.80402	86.02094	1044.55969							-600.47351	108.82314	1361.91199	-674.47186	173.10378	158.03059	-607.11316	-76.25594	156.83980	-648.68005	-69.00270	161.18375	-558.02643	1.65287	804.40936	-673.52533	285.41681	874.45660	-644.49316	17.21514	516.51215	-670.22943	73.97401	574.02136	-651.26270	-60.20145	757.95618	-680.28455	-35.12445	615.61993	-690.09155	-31.92760	567.82031	
383	7.640	-722.85358	121.23539	1844.95300	-729.68475	287.46872	1527.00867	-567.14655	-2.75849	1056.79700	-593.16974	246.01308	1069.71423	-676.40942	145.19920	578.26080	-681.43829	269.09271	744.95782	-712.13971	250.36650	643.47070	-715.68365	247.47188	577.44257	-663.30304	206.23277	534.59076	-758.33093	257.48764	504.24420	-517.53473	-72.95534	143.09953	-549.25293	-30.95953	163.75896	-791.29224	38.43488	174.29828	-567.83740	216.71324	816.24976	-596.69592	25.05018	167.71188	-672.07202	52.52164	159.32779	-711.12567	153.76518	216.41010	-794.91064	178.02989	184.14063	-767.05347	227.14742	205.79401	-590.91229	219.91780	173.33328	-882.68439	296.18677	144.57034	-556.00635	257.16006	164.18193	-660.39661	297.76373	157.86131	-624.00763	306.82022	158.55092	-528.02759	304.34650	146.51938	-701.04816	-70.86012	1537.43164	-714.83917	69.35553	216.02669	-738.19617	-45.50379	490.53223	-756.53094	-20.19726	208.05363	-875.85034	-78.68372	141.27127	-624.90436	-72.38039	871.58069	-776.23383	85.78063	1044.11072							-600.75214	108.21667	1362.14917	-674.64166	172.93187	157.95976	-607.10754	-76.18150	156.83731	-648.75262	-68.97015	161.07677	-557.08063	1.48547	804.44086	-672.03607	285.75644	875.12903	-643.47632	17.07001	516.34644	-669.47284	73.84497	574.23932	-650.71240	-60.15662	757.86639	-679.93872	-35.35855	615.55963	-689.37988	-32.66801	567.91315	
384	7.660	-724.57050	121.10406	1844.86292	-730.66284	287.21362	1526.37598	-566.46570	-3.08464	1056.79993	-592.70526	245.87366	1069.86707	-675.15454	144.59294	578.36115	-680.73108	268.82816	744.92603	-711.51581	250.57954	643.70526	-714.92853	247.77205	577.79919	-662.99591	206.18576	534.07861	-757.44763	257.61008	504.36887	-517.53473	-72.95534	143.09953	-549.13794	-30.95669	163.86974	-791.34613	38.47646	174.31342	-567.55737	216.74211	816.09424	-596.82343	24.92844	167.82133	-672.05176	52.45108	159.39291	-710.97260	153.26608	216.39732	-794.84064	177.87834	184.14105	-767.01935	226.99538	205.81288	-591.09625	219.42029	173.50090	-882.51361	295.87210	144.41501	-555.86517	257.21924	164.16922	-660.23407	297.67609	157.79530	-624.12836	306.66592	158.45477	-528.03979	304.43768	146.58080	-702.56750	-71.28005	1537.39856	-714.98151	69.28308	215.87624	-737.82446	-45.60615	490.41214	-756.50531	-20.20849	207.99689	-875.95648	-78.79716	141.44162	-624.35052	-72.77297	871.50775	-775.55774	85.53370	1043.97058							-600.78162	107.63751	1361.95447	-674.59406	172.83958	157.97351	-607.08496	-76.29670	156.74152	-648.55493	-68.98531	161.11317	-556.80286	1.31705	804.44989	-671.34882	285.58676	875.33765	-643.18787	16.96870	516.11884	-669.31219	73.71884	574.09015	-649.98767	-60.46729	757.47156	-679.25647	-35.51658	615.53192	-688.65930	-32.93287	567.64453	
385	7.680	-726.04987	120.59505	1844.72766	-731.65631	286.77490	1526.31140	-566.24701	-3.05183	1056.76794	-592.25201	245.53592	1069.71204	-675.04742	144.72578	578.11969	-680.10809	268.33682	744.72198	-711.08368	250.44745	643.74463	-714.37695	247.38321	577.65570	-662.52191	205.81664	534.03137	-756.91058	256.86798	504.37430	-517.51324	-72.85207	142.95139	-549.21240	-30.96541	163.91592	-791.40265	38.22918	174.10150	-566.61365	216.73480	816.18799	-596.72980	24.80718	167.64624	-672.05176	52.45108	159.39291	-710.95673	153.10628	216.39972	-794.81006	177.90009	184.18182	-767.01935	226.99538	205.81288	-590.94263	219.56517	173.09338	-882.50006	296.18253	144.69447	-556.02112	257.80844	164.60846	-660.26764	297.60220	157.83319	-624.00763	306.82022	158.55092	-527.96783	304.32034	146.54173	-703.61224	-71.15633	1537.28943	-715.05145	69.17474	215.84152	-737.16833	-46.10013	490.87286	-756.64374	-20.39265	208.01334	-875.95648	-78.79716	141.44162	-624.22382	-72.74476	871.50519	-775.14966	85.45628	1043.90613							-601.54333	107.15180	1361.77869	-674.54291	172.83434	158.04039	-607.20886	-76.19386	156.57788	-648.51624	-69.10761	161.15593	-556.65393	0.93419	804.40125	-671.18091	284.78009	875.12347	-643.22540	16.69869	515.60767	-668.98236	73.38965	573.90991	-649.45245	-60.82925	757.36200	-678.76807	-35.61897	614.89978	-687.48853	-33.85777	568.46680	
